<svg xmlns="http://www.w3.org/2000/svg" fill="none" viewBox="0 0 24 24">
  <path fill="currentColor" d="m 9.7694458,19.870032 c -0.42553,-0.210632 -0.4961,-0.435591 -0.57691,-1.838812 -0.0376,-0.653151 -0.0859,-1.40757 -0.10737,-1.676487 l -0.039,-0.48894 -0.9241,-0.749949 c -0.50825,-0.412472 -0.94631,-0.797161 -0.97347,-0.854863 -0.0272,-0.0577 -0.0646,-0.400238 -0.0831,-0.76119 l -0.0337,-0.656276 -0.31251,0.0194 c -0.17188,0.01067 -0.46357,0.08801 -0.6482,0.171882 -0.37287,0.169373 -0.61716,0.192373 -0.77984,0.07342 -0.19656,-0.143732 -0.42755,-0.904351 -0.46237,-1.522565 -0.0386,-0.685707 0.046,-1.089839 0.31508,-1.503999 0.16933,-0.2606659 0.19858,-0.3682449 0.21948,-0.8070239 0.0267,-0.561664 -0.0915,-1.25631 -0.33642,-1.976408 -0.0833,-0.245072 -0.15155,-0.510974 -0.15155,-0.590894 0,-0.209903 0.21323,-0.395319 0.45463,-0.395319 0.16921,0 0.37199,0.136409 1.17192,0.78832 1.4269,1.16288 1.34484,1.106525 1.49455,1.026404 0.11007,-0.05891 0.12902,-0.128796 0.12902,-0.475754 0,-1.444036 0.76955,-2.821371 1.9551202,-3.499263 0.51194,-0.292718 0.74514,-0.15891 0.8804,0.505157 0.0491,0.241283 0.15954,0.611428 0.24532,0.822544 0.1791,0.440751 0.69777,1.27011 0.79432,1.27011 0.0965,0 0.61522,-0.829359 0.79431,-1.27011 0.0858,-0.211116 0.19618,-0.581261 0.24533,-0.822544 0.0945,-0.463816 0.2372,-0.657946 0.48297,-0.656868 0.39097,0.0017 1.37324,0.837485 1.77512,1.510378 0.3474,0.58167 0.57569,1.408154 0.57695,2.08871 4.4e-4,0.225876 0.025,0.268992 0.21001,0.36864 l 0.20955,0.112847 1.08508,-0.884286 c 0.90549,-0.737917 1.1191,-0.884285 1.29052,-0.884285 0.23732,0 0.45544,0.183994 0.45544,0.384176 0,0.07379 -0.0827,0.392347 -0.18378,0.707902 -0.24723,0.771783 -0.33436,1.313797 -0.30438,1.893335 0.0214,0.412981 0.0538,0.527927 0.22264,0.7883479 0.1087,0.167681 0.23067,0.45254 0.27106,0.63302 0.15096,0.674533 -0.0717,2.034598 -0.38419,2.34712 -0.16242,0.162418 -0.41183,0.152919 -0.81697,-0.03111 -0.18463,-0.08387 -0.47632,-0.161214 -0.6482,-0.171882 l -0.31252,-0.0194 -0.0312,0.658049 c -0.0251,0.52869 -0.0558,0.690659 -0.15625,0.823938 -0.0688,0.09124 -0.50799,0.475752 -0.97607,0.854474 l -0.85106,0.688585 -0.0389,0.487556 c -0.0214,0.268155 -0.0696,1.021952 -0.10725,1.675103 -0.0811,1.408478 -0.15176,1.63198 -0.5816,1.840065 -0.25129,0.121646 -0.37457,0.12876 -2.23071,0.128713 -1.86358,-6.3e-5 -1.97823,-0.0067 -2.2271802,-0.129966 z m 4.0662102,-1.191705 c 0.0583,-0.557543 0.0492,-1.115876 -0.0181,-1.115876 -0.032,0 -0.41642,0.140631 -0.85417,0.312513 -0.43775,0.171881 -0.87104,0.312512 -0.96287,0.312512 -0.0918,0 -0.54421,-0.140572 -1.00528,-0.312382 -0.46107,-0.17181 -0.84534,-0.31244 -0.85393,-0.312512 -0.031,-2.5e-4 -0.0147,0.740078 0.0245,1.115745 l 0.0402,0.384183 h 1.79477 1.79476 z m -0.91046,-1.78164 c 0.50565,-0.194287 0.95139,-0.377957 0.99054,-0.408153 0.0392,-0.0302 0.0822,-0.250038 0.0957,-0.488534 0.031,-0.548611 0.0808,-0.616175 1.02622,-1.393388 0.40947,-0.336598 0.80777,-0.666894 0.88512,-0.73399 l 0.14063,-0.121994 V 11.407813 9.0649981 l -0.16712,-0.109498 c -0.0919,-0.06022 -0.17633,-0.08197 -0.18761,-0.04832 -0.23167,0.691532 -0.79036,0.894254 -2.08287,0.755768 -0.45695,-0.04896 -0.47586,-0.04542 -0.75003,0.14038 -0.15469,0.104834 -0.3598,0.2903349 -0.45581,0.4122229 -0.14677,0.186355 -0.21347,0.221616 -0.41922,0.221616 -0.20575,0 -0.27245,-0.03526 -0.41923,-0.221616 -0.096,-0.121888 -0.30111,-0.3073889 -0.45581,-0.4122229 -0.27417,-0.1858 -0.29308,-0.18934 -0.75003,-0.14038 -1.0550502,0.113044 -1.7072602,-0.03022 -1.9313402,-0.42423 -0.11981,-0.210671 -0.13152,-0.212285 -0.34157,-0.04706 l -0.16468,0.129542 v 2.2106989 2.210699 l 0.32814,0.278491 c 0.18047,0.15317 0.58778,0.492496 0.90512,0.754059 0.31734,0.261563 0.62559,0.549748 0.685,0.640411 0.0669,0.102094 0.12087,0.344738 0.14179,0.637428 l 0.0338,0.472585 0.93754,0.355345 c 0.51564,0.195439 0.95978,0.358422 0.98697,0.362184 0.0272,0.0038 0.46314,-0.152124 0.96878,-0.346413 z m -2.00857,-1.57362 c -0.13979,-0.15447 -0.13364,-0.526517 0.0109,-0.657293 0.15447,-0.139793 0.52652,-0.133646 0.65729,0.01086 0.1398,0.154469 0.13365,0.526517 -0.0109,0.657292 -0.15447,0.139793 -0.52651,0.133646 -0.65729,-0.01086 z m 1.50006,0 c -0.13979,-0.15447 -0.13364,-0.526517 0.0109,-0.657293 0.15447,-0.139793 0.52652,-0.133646 0.65729,0.01086 0.1398,0.154469 0.13365,0.526517 -0.0109,0.657292 -0.15447,0.139793 -0.52651,0.133646 -0.65729,-0.01086 z M 9.7818958,12.427271 c -0.55002,-0.27687 -1.04926,-0.546942 -1.10942,-0.600161 -0.14799,-0.130918 -0.14505,-0.525751 0.005,-0.661474 0.21135,-0.191265 0.47531,-0.121914 1.5122402,0.397316 0.55002,0.275416 1.05596,0.556677 1.12431,0.625025 0.15999,0.159987 0.15963,0.463922 -7.4e-4,0.624287 -0.21459,0.214588 -0.46554,0.151495 -1.5313102,-0.384993 z m 2.9063602,0.384993 c -0.15493,-0.154931 -0.16215,-0.462872 -0.0143,-0.610702 0.0609,-0.06088 0.56436,-0.342137 1.11885,-0.625025 1.06695,-0.544336 1.34604,-0.616733 1.54214,-0.400041 0.13733,0.151747 0.13391,0.526898 -0.006,0.650623 -0.21851,0.19333 -2.14067,1.11015 -2.32748,1.11015 -0.1049,0 -0.24358,-0.05534 -0.31325,-0.125005 z M 6.5802158,11.957962 c 0.2329,-0.02076 0.43547,-0.05718 0.45015,-0.08093 0.0147,-0.02374 0.0314,-0.730099 0.0372,-1.569676 l 0.0105,-1.5265039 -0.39454,-0.328138 c -0.217,-0.180476 -0.41342,-0.328138 -0.4365,-0.328138 -0.0231,0 -0.0149,0.147662 0.0182,0.328138 0.0331,0.180476 0.0486,0.581273 0.0345,0.89066 -0.0259,0.566131 -0.0805,0.7388699 -0.42977,1.3596649 -0.13778,0.24485 -0.1771,0.767245 -0.0882,1.17192 0.039,0.177546 0.062,0.195118 0.20939,0.160095 0.0911,-0.02164 0.35614,-0.05633 0.58904,-0.07709 z m 11.6313702,-0.03636 c 0.0207,-0.07735 0.0381,-0.330626 0.0385,-0.562844 7.6e-4,-0.375618 -0.0281,-0.477622 -0.262,-0.924291 -0.24286,-0.4638979 -0.26472,-0.5458629 -0.28749,-1.0778459 -0.0136,-0.316673 0.002,-0.72343 0.0356,-0.903906 0.0331,-0.180476 0.0425,-0.328138 0.0209,-0.328138 -0.0216,0 -0.21511,0.142295 -0.43005,0.316212 l -0.3908,0.316212 0.0167,1.5744869 0.0167,1.574488 0.45754,0.04085 c 0.25164,0.02247 0.47431,0.05763 0.49481,0.07813 0.0867,0.08674 0.25468,0.02679 0.28956,-0.103355 z m -6.00566,-2.7974809 c 0.0878,-0.06902 0.30952,-0.195317 0.49282,-0.28065 0.373,-0.173643 0.69502,-0.19431 1.34778,-0.0865 0.63682,0.105175 0.72884,0.04919 0.81928,-0.498436 0.12432,-0.752802 0.0698,-1.340815 -0.17748,-1.913462 -0.13797,-0.319539 -0.67337,-1.033106 -0.77515,-1.033106 -0.0424,0 -0.12364,0.147662 -0.1806,0.328138 -0.13764,0.43616 -0.61936,1.264482 -1.04432,1.795707 -0.49893,0.623705 -0.72579,0.700943 -1.05923,0.360628 -0.52573,-0.536574 -1.1712,-1.560092 -1.35986,-2.156335 -0.0571,-0.180476 -0.1375,-0.328138 -0.17864,-0.328138 -0.0757,0 -0.4069102,0.383044 -0.6132702,0.709341 -0.33463,0.529119 -0.47328,1.383792 -0.3515,2.166666 0.0974,0.625999 0.17239,0.677471 0.82918,0.568997 0.6527602,-0.107809 0.9747802,-0.08714 1.3477802,0.0865 0.1833,0.08533 0.40508,0.211625 0.49283,0.28065 0.19714,0.155076 0.21323,0.155076 0.41038,0 z" />
</svg>
