<svg xmlns="http://www.w3.org/2000/svg" fill="none" viewBox="0 0 24 24">
   <path fill="currentColor" d="m 4.8498287,19.851626 c -0.6194,-0.292095 -0.84252,-0.716379 -0.84458,-1.606012 -0.002,-0.681756 0.0538,-0.925507 0.28625,-1.260992 0.20242,-0.292099 0.70318,-0.555833 1.05537,-0.555833 0.23999,0 0.29281,-0.03961 1.01908,-0.76413 l 0.76597,-0.76413 -0.56141,-0.580321 c -0.71482,-0.738902 -0.72071,-0.790707 -0.1578,-1.387419 0.22198,-0.235313 0.55016,-0.507607 0.72928,-0.605098 0.29915,-0.162816 0.36454,-0.174554 0.80267,-0.144089 l 0.47699,0.03317 3.0705003,-3.7143966 c 1.68878,-2.042918 3.12092,-3.746776 3.18252,-3.78635 0.0616,-0.03957 1.20208,-0.228177 2.53438,-0.419115 1.86336,-0.267048 2.45592,-0.331873 2.56777,-0.280911 0.30203,0.137613 0.30049,0.19954 -0.0693,2.779432 -0.19094,1.332302 -0.37954,2.472772 -0.41911,2.534378 -0.0396,0.06161 -1.74344,1.4937376 -3.78635,3.1825176 l -3.7144,3.070507 0.0332,0.476989 c 0.0305,0.438132 0.0187,0.503519 -0.14409,0.802667 -0.0975,0.179124 -0.36979,0.507301 -0.6051,0.729283 -0.59671,0.562907 -0.64852,0.557014 -1.3874203,-0.157805 l -0.58032,-0.561408 -0.76413,0.765969 c -0.72452,0.726267 -0.76413,0.779088 -0.76413,1.01908 0,0.352189 -0.26374,0.852947 -0.55583,1.055372 -0.33516,0.232261 -0.57879,0.287713 -1.261,0.287012 -0.49466,-5.08e-4 -0.64886,-0.02567 -0.90903,-0.148365 z m 1.64088,-0.927224 c 0.0988,-0.09284 0.14503,-0.207187 0.14503,-0.358928 0,-0.193894 -0.0626,-0.285635 -0.48417,-0.709706 -0.41795,-0.420413 -0.51382,-0.487028 -0.70093,-0.487028 -0.1363,0 -0.27058,0.05057 -0.36178,0.136249 -0.13046,0.122563 -0.14503,0.192097 -0.14503,0.692147 0,0.506659 0.0136,0.569519 0.15381,0.709706 0.13981,0.139816 0.20359,0.15381 0.70092,0.15381 0.47549,0 0.5661,-0.01784 0.69215,-0.13625 z m 1.32162,-2.074245 0.64172,-0.64391 -0.33106,-0.32695 -0.33106,-0.326949 -0.65468,0.656918 -0.65469,0.656919 0.30922,0.313941 c 0.17007,0.172667 0.32489,0.313941 0.34403,0.313941 0.0191,0 0.32358,-0.28976 0.67652,-0.64391 z m 2.8919703,-0.216324 c 0.13374,-0.162252 0.19255,-0.300547 0.19255,-0.452794 0,-0.202291 -0.11005,-0.329244 -1.4271103,-1.646303 -1.32642,-1.326418 -1.44284,-1.427109 -1.65014,-1.427109 -0.1647,0 -0.28722,0.05631 -0.46846,0.21529 l -0.24543,0.215289 1.66014,1.664613 c 0.91308,0.915537 1.6794303,1.664613 1.7030203,1.664613 0.0236,0 0.12952,-0.105119 0.23543,-0.233599 z m 4.03006,-4.692742 c 1.93899,-1.606613 3.57462,-2.9678036 3.63472,-3.0248706 0.085,-0.08069 0.16966,-0.524989 0.38082,-1.998349 0.14935,-1.042025 0.26249,-1.903646 0.25142,-1.914713 -0.0111,-0.01107 -0.87269,0.102071 -1.91471,0.251417 -1.47336,0.211166 -1.91766,0.295835 -1.99835,0.380819 -0.25143,0.264809 -5.9459803,7.1647296 -5.9459803,7.2045666 0,0.02442 0.14735,0.193607 0.32744,0.375967 l 0.32745,0.331564 2.7916803,-2.789132 c 2.5254,-2.5230906 2.81095,-2.7891336 2.99371,-2.7891336 0.26236,0 0.45269,0.190328 0.45269,0.452688 0,0.182761 -0.26598,0.468262 -2.78843,2.9930136 l -2.78843,2.790981 0.32814,0.328147 c 0.18048,0.180481 0.34935,0.328147 0.37527,0.328147 0.0259,0 1.63357,-1.314501 3.57256,-2.921112 z" />
</svg>
