<svg xmlns="http://www.w3.org/2000/svg" fill="none" viewBox="0 0 24 24">
   <path fill="currentColor" d="M 10.545201,20.909648 C 9.0352169,20.568219 8.0618796,20.021121 7.0314757,18.934638 5.4920297,17.311412 4.6466109,15.100965 4.6489672,12.705295 4.6502047,11.447474 4.7662265,10.750861 5.1833069,9.4970508 6.3326368,6.0419946 9.512117,2.9999989 11.974003,2.9999989 c 0.675863,0 1.096817,0.111242 1.913141,0.5055621 2.093396,1.011209 4.073383,3.4177325 4.929547,5.9914898 0.417076,1.2538102 0.533102,1.9504232 0.534338,3.2082442 0.0019,1.56825 -0.305108,2.859838 -1.014962,4.274946 -0.747409,1.489969 -1.92814,2.724652 -3.23134,3.379011 -0.857784,0.430692 -1.659866,0.605513 -2.912165,0.634701 -0.815867,0.01899 -1.299962,-0.0061 -1.647361,-0.08431 z m 3.033835,-1.733574 c 0.556318,-0.173605 1.502006,-0.654043 1.502006,-0.763059 0,-0.0339 -0.09803,-0.196882 -0.217861,-0.362102 -1.035979,-1.428513 -3.01846,-1.476238 -4.017779,-0.09672 -0.246008,0.339607 -0.526183,1.106719 -0.436843,1.196056 0.02959,0.02955 0.25234,0.09862 0.495184,0.15356 0.649371,0.146942 2.002083,0.08236 2.675293,-0.127735 z M 8.9189547,18.229742 c 0,-0.05417 0.1216693,-0.352334 0.2703775,-0.662639 0.6538518,-1.36436 2.0885898,-2.244473 3.6548818,-2.242007 1.158774,0.0021 1.996621,0.364247 2.884953,1.247933 0.446514,0.444182 0.627425,0.579772 0.676199,0.506819 0.375246,-0.561293 0.987,-1.862534 0.986174,-2.097633 -1.5e-4,-0.0449 -0.1648,-0.148272 -0.365872,-0.229669 -1.106761,-0.448033 -1.949001,-1.34634 -2.344934,-2.501041 -0.246302,-0.718318 -0.24577,-1.841799 0.0014,-2.5622439 0.205727,-0.6001481 0.661273,-1.2963248 1.110252,-1.696726 L 16.110383,7.7087813 15.885763,7.3763264 C 15.762217,7.1934759 15.27932,6.6593765 14.812639,6.1894374 14.089702,5.4614439 13.867252,5.2873051 13.309415,5.0126766 12.50794,4.6181003 12.044339,4.5489358 11.419175,4.7306748 c -0.464644,0.1350755 -1.190802,0.4707025 -1.190802,0.5503828 0,0.024581 0.179556,0.2059779 0.399007,0.4030898 0.500063,0.4491569 0.925897,1.1014771 1.154594,1.7686986 0.249803,0.7287928 0.24896,1.844791 -0.0023,2.577034 -0.450665,1.315184 -1.602401,2.365362 -2.9381494,2.67906 -0.6098455,0.143243 -1.5806795,0.11364 -2.1076773,-0.06426 -0.2558592,-0.08638 -0.457374,-0.118045 -0.4833921,-0.07595 -0.071287,0.115351 0.04667,1.198426 0.203624,1.869658 0.2925432,1.2511 0.9923574,2.54216 1.8683898,3.446918 0.4231064,0.436982 0.5961943,0.536983 0.5961943,0.344441 z M 17.744733,12.456771 C 17.66446,11.29137 17.278911,9.6895469 16.980405,9.281317 16.890666,9.1585868 16.864238,9.1708572 16.670011,9.4255055 c -0.727067,0.9532335 -0.731278,2.1483395 -0.011,3.0928145 0.207223,0.271674 0.849689,0.726155 1.026512,0.726155 0.09591,0 0.105005,-0.12107 0.05906,-0.787704 z M 8.787381,11.010099 C 9.0147428,10.925029 9.342963,10.733723 9.516753,10.58496 9.905608,10.252116 10.277278,9.5297297 10.347074,8.9711093 10.456569,8.0947476 9.939304,7.0711834 9.1687719,6.6394724 L 8.8594256,6.4661526 8.4364037,6.9860905 C 7.9288702,7.6099027 7.5692118,8.1672889 7.2062778,8.8925003 6.9490087,9.4065702 6.5311419,10.52178 6.5311419,10.69432 c 0,0.08665 0.373015,0.301224 0.6927365,0.398483 0.380842,0.115841 1.1401879,0.07568 1.5635026,-0.0827 z" />
</svg>
