<svg xmlns="http://www.w3.org/2000/svg" fill="none" viewBox="0 0 24 24">
   <path fill="currentColor" d="m 4.3773725,19.956857 c -0.1871,-0.07615 -0.40053,-0.367185 -0.40053,-0.546158 0,-0.225319 0.15706,-0.487107 0.3431,-0.57187 0.12454,-0.05675 1.98856,-0.07491 7.6885105,-0.07491 8.17695,0 7.78045,-0.01712 7.94457,0.343096 0.1193,0.261822 0.0884,0.454949 -0.10804,0.674783 l -0.18295,0.204763 -7.57612,0.01209 c -4.1668705,0.0067 -7.6357105,-0.01216 -7.7085405,-0.0418 z m 1.40183,-2.511061 c -0.68139,-0.171986 -1.26613,-0.657145 -1.57321,-1.305309 l -0.1978,-0.417494 1.3e-4,-1.37939 c 1.2e-4,-1.311853 0.008,-1.397787 0.15127,-1.755126 0.20619,-0.512586 0.72162,-1.026135 1.22845,-1.223984 0.52617,-0.205396 1.2912,-0.205396 1.81737,0 0.50683,0.197849 1.02226,0.711398 1.22845,1.223984 0.14375,0.357339 0.15116,0.443273 0.15127,1.755126 l 1.3e-4,1.37939 -0.19758,0.417031 c -0.24846,0.524405 -0.61223,0.891112 -1.11941,1.128455 -0.43813,0.205026 -1.0776,0.281173 -1.48907,0.177317 z m 1.11686,-1.380235 c 0.39048,-0.241332 0.46656,-0.522104 0.46656,-1.721958 0,-1.251232 -0.0714,-1.488424 -0.52881,-1.756474 -0.53537,-0.313751 -1.20725,-0.118635 -1.47156,0.427343 -0.1175,0.242733 -0.13142,0.383471 -0.13142,1.329131 0,0.937953 0.0145,1.087687 0.12848,1.323051 0.26885,0.555365 0.98345,0.740862 1.53675,0.398907 z m 4.5888005,1.380235 c -0.68139,-0.171986 -1.26613,-0.657145 -1.5732105,-1.305309 l -0.1978,-0.417494 V 10.738377 5.7537624 l 0.15127,-0.375736 c 0.2063805,-0.512624 0.7218705,-1.026183 1.2285805,-1.223984 0.52617,-0.205395 1.2912,-0.205395 1.81737,0 0.50671,0.197801 1.0222,0.71136 1.22858,1.223984 l 0.15127,0.375736 v 4.9846146 4.984616 l -0.19758,0.417031 c -0.24846,0.524405 -0.61223,0.891112 -1.11942,1.128455 -0.43812,0.205026 -1.07759,0.281173 -1.48906,0.177317 z m 1.11686,-1.380235 c 0.11377,-0.07032 0.26529,-0.248551 0.33671,-0.396077 0.12776,-0.263922 0.12985,-0.343126 0.12985,-4.931107 0,-4.6059526 -0.002,-4.6661896 -0.13142,-4.9343556 -0.37127,-0.766935 -1.49768,-0.766935 -1.86895,0 -0.12981,0.268166 -0.13142,0.328403 -0.13142,4.9343556 0,4.571979 0.003,4.668051 0.12848,4.928277 0.26885,0.555365 0.98346,0.740862 1.53675,0.398907 z m 4.5888,1.380235 c -0.68139,-0.171986 -1.26612,-0.657145 -1.57321,-1.305309 l -0.1978,-0.417494 V 12.462616 9.2022384 l 0.15127,-0.375735 c 0.20638,-0.512624 0.72187,-1.026183 1.22858,-1.223984 0.52617,-0.205396 1.2912,-0.205396 1.81737,0 0.50671,0.197801 1.0222,0.71136 1.22858,1.223984 l 0.15127,0.375735 v 3.2603776 3.260377 l -0.19758,0.417031 c -0.24846,0.524405 -0.61223,0.891112 -1.11941,1.128455 -0.43813,0.205026 -1.0776,0.281173 -1.48907,0.177317 z m 1.11686,-1.380235 c 0.11378,-0.07032 0.26529,-0.248551 0.33671,-0.396077 0.12567,-0.259597 0.12985,-0.362817 0.12985,-3.206868 0,-2.8553776 -0.004,-2.9463296 -0.13142,-3.2101186 -0.37127,-0.766934 -1.49768,-0.766934 -1.86895,0 -0.12769,0.263789 -0.13142,0.354741 -0.13142,3.2101186 0,2.833966 0.005,2.948091 0.12848,3.204038 0.26885,0.555365 0.98346,0.740862 1.53675,0.398907 z" />
</svg>
